Coordinates
version=1
nRows=13
nColumns=38
inDegrees=no

Units are S.I. units (second, meters, Newtons, ...)
If the header above contains a line with 'inDegrees', this indicates whether rotational values are in degrees (yes) or radians (no).

endheader
time	pelvis_tilt	pelvis_list	pelvis_rotation	pelvis_tx	pelvis_ty	pelvis_tz	hip_flexion_r	hip_adduction_r	hip_rotation_r	knee_angle_r	ankle_angle_r	subtalar_angle_r	mtp_angle_r	hip_flexion_l	hip_adduction_l	hip_rotation_l	knee_angle_l	ankle_angle_l	subtalar_angle_l	mtp_angle_l	lumbar_extension	lumbar_bending	lumbar_rotation	arm_flex_r	arm_add_r	arm_rot_r	elbow_flex_r	pro_sup_r	wrist_flex_r	wrist_dev_r	arm_flex_l	arm_add_l	arm_rot_l	elbow_flex_l	pro_sup_l	wrist_flex_l	wrist_dev_l
1.53	0.185396	1.35567	-1.79057	0.68613	0.405201	0.913924	-0.396997	-0.0858911	-0.449274	0.441667	0.386236	0	0	0.243975	0.034668	-0.225391	0.238553	0.0764923	0	0	-0.379273	-0.0597685	0.104573	-0.0242556	-0.369342	0.201781	0.881453	1.24675	0	0	0.0808794	-0.398064	0.888878	0.800578	0.612003	0	0
1.54	0.175977	1.35441	-1.78668	0.686411	0.393187	0.913327	-0.410175	-0.0866542	-0.434778	0.440978	0.373071	0	0	0.242667	0.0342097	-0.221414	0.260007	0.0667377	0	0	-0.376394	-0.0624354	0.110273	-0.0295706	-0.367147	0.206396	0.870158	1.24622	0	0	0.0765728	-0.39909	0.884822	0.798848	0.602286	0	0
1.55	0.189894	1.35504	-1.80694	0.686882	0.381027	0.912429	-0.410421	-0.101153	-0.434586	0.464952	0.365587	0	0	0.241355	0.0383651	-0.221608	0.271997	0.0412042	0	0	-0.369916	-0.0698904	0.115471	-0.0357609	-0.364942	0.211449	0.859495	1.24695	0	0	0.0714362	-0.400735	0.88045	0.797676	0.598574	0	0
1.56	0.222723	1.35603	-1.84558	0.687853	0.368652	0.911578	-0.402426	-0.117601	-0.4199	0.499504	0.354496	0	0	0.240248	0.0456785	-0.227179	0.281521	0.00848883	0	0	-0.361293	-0.0805992	0.11883	-0.0413612	-0.363329	0.219708	0.846477	1.24835	0	0	0.0653025	-0.401736	0.874778	0.796098	0.592265	0	0
1.57	0.240267	1.35625	-1.86872	0.688224	0.356347	0.911118	-0.399398	-0.139452	-0.433611	0.532093	0.340733	0	0	0.239792	0.0459738	-0.238148	0.299331	-0.0142489	0	0	-0.35457	-0.0892654	0.122365	-0.0463435	-0.359942	0.22704	0.833585	1.25012	0	0	0.0596705	-0.404986	0.869948	0.796321	0.587665	0	0
1.58	0.253357	1.35372	-1.88481	0.689414	0.344072	0.91151	-0.398089	-0.143148	-0.39717	0.552669	0.311086	0	0	0.237892	0.0470304	-0.245908	0.32328	-0.0244306	0	0	-0.351369	-0.0959693	0.122385	-0.0489723	-0.357736	0.236912	0.817526	1.2571	0	0	0.0543339	-0.406276	0.86466	0.795	0.574707	0	0
1.59	0.298712	1.35564	-1.93347	0.690162	0.33187	0.910926	-0.379224	-0.180693	-0.427542	0.611659	0.290034	0	0	0.246133	0.0524611	-0.251875	0.354644	-0.0221375	0	0	-0.340952	-0.109363	0.12192	-0.0535201	-0.353222	0.244651	0.804481	1.26115	0	0	0.0490375	-0.411953	0.862232	0.797459	0.569717	0	0
1.6	0.3411	1.3576	-1.97464	0.6916	0.319702	0.910918	-0.360997	-0.204491	-0.428168	0.659041	0.252362	0	0	0.255485	0.0587413	-0.251982	0.389377	-0.0109627	0	0	-0.33083	-0.120126	0.116733	-0.0558718	-0.348862	0.25544	0.787338	1.27156	0	0	0.0444659	-0.417628	0.862825	0.799771	0.554891	0	0
1.61	0.381726	1.35779	-2.01215	0.693353	0.307815	0.911378	-0.340587	-0.227113	-0.422932	0.708389	0.204409	0	0	0.26011	0.0669122	-0.25034	0.417614	0.00205848	0	0	-0.323435	-0.130194	0.109662	-0.0586107	-0.345016	0.264563	0.77356	1.28127	0	0	0.042127	-0.42341	0.86633	0.801695	0.541093	0	0
1.62	0.426797	1.35902	-2.05225	0.695364	0.296113	0.911812	-0.314	-0.249695	-0.414428	0.761655	0.145127	0	0	0.26316	0.0767897	-0.248205	0.438802	0.0157945	0	0	-0.314784	-0.139819	0.100848	-0.0619612	-0.341389	0.272932	0.761888	1.29053	0	0	0.0413019	-0.430196	0.873716	0.80433	0.526262	0	0
1.63	0.473939	1.36142	-2.0932	0.697512	0.284562	0.912079	-0.282554	-0.271336	-0.403503	0.81681	0.0773247	0	0	0.26425	0.0876355	-0.245787	0.452327	0.0275487	0	0	-0.304754	-0.148502	0.0912036	-0.066448	-0.338578	0.280935	0.753788	1.29918	0	0	0.0417245	-0.438449	0.884646	0.809225	0.509616	0	0
1.64	0.51916	1.36421	-2.13144	0.699749	0.273163	0.91227	-0.24973	-0.29182	-0.393054	0.870395	0.00806423	0	0	0.262549	0.0987606	-0.243288	0.459102	0.0361128	0	0	-0.294529	-0.155836	0.0812357	-0.0721628	-0.336877	0.288418	0.749886	1.30654	0	0	0.0435378	-0.447876	0.898343	0.81642	0.491063	0	0
1.65	0.558545	1.36671	-2.16355	0.701983	0.261954	0.912524	-0.217204	-0.309586	-0.380919	0.920966	-0.0580658	0	0	0.25783	0.10946	-0.240518	0.461442	0.0431651	0	0	-0.285402	-0.161643	0.071254	-0.0786516	-0.335885	0.294477	0.749475	1.31292	0	0	0.0466545	-0.457833	0.913126	0.824957	0.47227	0	0
